<svg width="11" height="15" viewBox="0 0 11 15" fill="none" xmlns="http://www.w3.org/2000/svg">
<path id="Location" fill-rule="evenodd" clip-rule="evenodd" d="M5.15035 0.011002C4.30624 0.0797308 3.53097 0.362426 2.85699 0.847228C2.03826 1.43616 1.47857 2.23262 1.16698 3.25218C0.94042 3.99346 0.95811 5.00625 1.21371 5.9295C1.4062 6.62484 1.59288 7.09731 1.96775 7.83784C2.69399 9.27247 3.91653 10.9492 5.27974 12.3802L5.49975 12.6111L5.73277 12.369C6.69273 11.3717 7.60287 10.2121 8.39874 8.97248C9.20344 7.71904 9.82169 6.19423 9.94435 5.1604C10.0437 4.32322 9.99535 3.7395 9.77079 3.06487C9.46068 2.13319 8.89836 1.3805 8.07749 0.798318C7.69231 0.525142 7.09411 0.253058 6.61542 0.133323C6.18934 0.0267408 5.58088 -0.0240423 5.15035 0.011002ZM6.16256 1.72583C6.46985 1.8052 6.66173 1.88081 6.8869 2.01127C7.44585 2.33514 7.86603 2.82757 8.11481 3.45036C8.2071 3.68141 8.27018 4.05628 8.27131 4.38015C8.27347 5.01782 8.09307 5.56354 7.71722 6.05604C7.43424 6.42692 7.06521 6.71829 6.64105 6.90575C6.27003 7.06976 6.03138 7.12438 5.62443 7.13844C5.23677 7.15184 4.99365 7.12596 4.71426 7.04156C3.95927 6.81344 3.34784 6.29718 3.00134 5.59529C2.60698 4.7964 2.6309 3.85261 3.06528 3.07315C3.44452 2.39261 4.06124 1.92072 4.82314 1.72809C5.12065 1.65285 5.24375 1.63994 5.58016 1.64863C5.84229 1.65543 5.94018 1.66841 6.16256 1.72583ZM2.98077 11.2121C1.70381 11.442 0.567864 11.9519 0.198165 12.4613C0.0502361 12.6651 0.0016242 12.7968 0.000116333 12.9975C-0.00109897 13.1626 0.00585526 13.1911 0.0866727 13.3531C0.28686 13.7544 0.774082 14.1 1.56292 14.4004C1.89245 14.5258 2.54594 14.705 2.98077 14.7891C3.26664 14.8444 3.97113 14.9333 4.43238 14.9723C4.86811 15.0092 6.13468 15.0092 6.57041 14.9723C7.44151 14.8986 8.0792 14.7957 8.7297 14.6237C9.87517 14.3209 10.6614 13.8637 10.9167 13.3519C10.9926 13.1998 11.0009 13.1658 10.9999 13.0116C10.9972 12.5814 10.699 12.2285 10.0216 11.8538C9.59592 11.6184 8.66014 11.3221 7.96575 11.203L7.71819 11.1605L7.67318 11.2199C7.64842 11.2526 7.56488 11.3546 7.48751 11.4465C7.41016 11.5384 7.34685 11.6191 7.34685 11.6257C7.34685 11.6324 7.45278 11.6556 7.58228 11.6773C7.84186 11.7208 8.43889 11.8667 8.6582 11.9402C8.90236 12.0221 9.24434 12.198 9.36492 12.3038C9.76581 12.6556 9.48904 13.0044 8.5869 13.2846C8.2206 13.3983 7.45334 13.528 6.77296 13.5912C6.3445 13.6311 4.63016 13.631 4.21858 13.5911C2.92197 13.4655 2.02273 13.234 1.64385 12.9283C1.40487 12.7355 1.39566 12.539 1.6157 12.3275C1.82367 12.1277 2.20219 11.9634 2.80073 11.8132C3.01734 11.7589 3.30343 11.6968 3.43649 11.6754C3.56954 11.654 3.6784 11.6257 3.67842 11.6125C3.67842 11.5994 3.62317 11.5253 3.55559 11.448C3.48803 11.3708 3.40955 11.2738 3.38117 11.2325C3.32142 11.1456 3.34374 11.1467 2.98077 11.2121Z" fill="white"/>
</svg>
