<svg width="11" height="12" viewBox="0 0 11 12" fill="none" xmlns="http://www.w3.org/2000/svg">
<path id="Calendar" fill-rule="evenodd" clip-rule="evenodd" d="M2.81896 0.0204337C2.71676 0.0591426 2.63724 0.136006 2.58604 0.245549L2.54044 0.343132V1.12671C2.54044 2.04051 2.53648 2.00779 2.66409 2.14708C2.72038 2.20853 2.75457 2.2331 2.80768 2.25032C3.01975 2.31907 3.23148 2.22039 3.31753 2.01271L3.34817 1.93873V1.14948C3.34817 0.259499 3.34951 0.273123 3.24929 0.148847C3.14724 0.0222824 2.96088 -0.0333351 2.81896 0.0204337ZM7.94623 0.0100525C7.78263 0.0563696 7.67258 0.184755 7.64108 0.366055C7.62227 0.474375 7.62347 1.82239 7.64246 1.92026C7.6634 2.02807 7.69564 2.08947 7.76925 2.16171C7.87657 2.26703 8.02394 2.29924 8.17483 2.25032C8.22795 2.2331 8.26213 2.20853 8.31843 2.14708C8.44602 2.0078 8.44207 2.04035 8.44207 1.12783V0.345378L8.39915 0.250213C8.3532 0.14835 8.29662 0.087442 8.20359 0.0397028C8.14108 0.00763499 8.00868 -0.00762392 7.94623 0.0100525ZM0.913685 0.937532C0.775655 0.95343 0.685984 0.983536 0.551692 1.05908C0.300215 1.20054 0.118671 1.44012 0.0306286 1.74675L0 1.85341V6.46805V11.0827L0.042484 11.2198C0.0900749 11.3733 0.179081 11.5336 0.283878 11.6546C0.368286 11.752 0.536228 11.8749 0.647174 11.9205C0.853692 12.0053 0.523187 11.9999 5.49126 11.9999C10.4593 11.9999 10.1288 12.0053 10.3353 11.9205C10.4498 11.8735 10.6185 11.7485 10.7045 11.6471C10.8385 11.4892 10.9145 11.3384 10.9666 11.127L10.9951 11.0116L10.9991 6.58182C11.0017 3.69993 10.9986 2.0962 10.9901 1.99224C10.9557 1.57225 10.7578 1.24329 10.4274 1.05703C10.2123 0.935754 10.1918 0.932753 9.52773 0.925458L8.94581 0.919073L8.94022 1.46445C8.93397 2.07458 8.93379 2.07605 8.83734 2.28714C8.79417 2.38164 8.7578 2.43475 8.67071 2.53056C8.5766 2.6341 8.53993 2.66338 8.43423 2.71937C8.07078 2.91192 7.69287 2.84228 7.40501 2.52972C7.31098 2.4276 7.28327 2.38629 7.23276 2.27292C7.14007 2.06483 7.13277 2.00258 7.13277 1.42027V0.921946H5.49221H3.85163L3.84664 1.473C3.84104 2.0891 3.84221 2.08 3.74174 2.29425C3.66634 2.45506 3.50478 2.63167 3.36109 2.71036C3.22486 2.78498 3.1383 2.81209 3.00249 2.82268C2.849 2.83465 2.70591 2.80183 2.54695 2.71821C2.32428 2.60106 2.14182 2.36049 2.06905 2.08805C2.05202 2.02433 2.04709 1.9091 2.04233 1.46589L2.03651 0.921946L1.52633 0.923837C1.24575 0.924875 0.970057 0.931047 0.913685 0.937532ZM10.165 7.39221C10.1687 10.9825 10.1766 10.6802 10.0744 10.8467C10.0069 10.9566 9.90869 11.0358 9.79046 11.0758C9.70624 11.1042 9.68306 11.1044 5.4652 11.1007L1.22462 11.0969L1.12439 11.0447C1.00341 10.9816 0.925306 10.8976 0.864414 10.7652L0.820757 10.6703L0.81737 7.43506C0.815507 5.65569 0.816797 4.19183 0.820223 4.18204C0.825213 4.16782 1.76684 4.16497 5.49411 4.16782L10.1618 4.17139L10.165 7.39221ZM1.88253 5.87092V6.38299L2.51113 6.37931L3.13972 6.37561L3.14315 5.86722L3.14656 5.35883H2.51455H1.88253V5.87092ZM3.8758 5.87078V6.38272H4.50114H5.12648V5.87078V5.35883H4.50114H3.8758V5.87078ZM5.85604 5.87092V6.38299L6.48463 6.37931L7.11323 6.37561L7.11666 5.86722L7.12007 5.35883H6.48806H5.85604V5.87092ZM7.83937 5.86722L7.84279 6.37561L8.47139 6.37931L9.09998 6.38299V5.87092V5.35883H8.46796H7.83595L7.83937 5.86722ZM1.88253 7.64126V8.1461H2.51438H3.14624V7.64126V7.13643H2.51438H1.88253V7.64126ZM3.8758 7.64126V8.1461H4.50114H5.12648V7.64126V7.13643H4.50114H3.8758V7.64126ZM5.85604 7.6414V8.14637L6.48463 8.14269L7.11323 8.13899L7.11666 7.63771L7.12008 7.13643H6.48806H5.85604V7.6414ZM7.83628 7.64126V8.1461H8.46813H9.09998V7.64126V7.13643H8.46813H7.83628V7.64126ZM1.88253 9.40464V9.90948H2.51438H3.14624V9.40464V8.8998H2.51438H1.88253V9.40464ZM3.8758 9.40464V9.90948H4.50114H5.12648V9.40464V8.8998H4.50114H3.8758V9.40464ZM5.85604 9.4045V9.90948H6.48806H7.12008L7.11666 9.40819L7.11323 8.90691L6.48463 8.90321L5.85604 8.89953V9.4045ZM7.83628 9.40464V9.90948H8.46813H9.09998V9.40464V8.8998H8.46813H7.83628V9.40464Z" fill="white"/>
</svg>
