<svg width="38" height="55" viewBox="0 0 38 55" fill="none" xmlns="http://www.w3.org/2000/svg">
<path id="Logo" fill-rule="evenodd" clip-rule="evenodd" d="M17.9488 0.0254707C17.876 0.0471231 17.8357 0.0960665 17.8593 0.134334C17.8838 0.173955 17.6825 0.207261 17.3903 0.211772C17.1087 0.216207 16.8276 0.227335 16.7656 0.236507C16.7036 0.245755 16.2723 0.259063 15.807 0.26613C15.1111 0.276731 14.9612 0.298984 14.9612 0.391759C14.9612 0.453784 14.902 0.508291 14.8297 0.512952C14.7573 0.517538 14.5628 0.531371 14.3974 0.543626C14.232 0.55588 14.0036 0.569037 13.8899 0.572796C13.7593 0.577157 13.6831 0.621289 13.6831 0.692487C13.6831 0.774886 13.5971 0.805561 13.3636 0.806313C12.9353 0.807666 12.7058 0.875932 12.7058 1.00201C12.7058 1.07667 12.5999 1.10599 12.3305 1.10599C12.0367 1.10599 11.9349 1.13862 11.8613 1.25635C11.7947 1.36296 11.686 1.40672 11.4874 1.40672C11.2844 1.40672 11.1853 1.44807 11.1269 1.55708C11.0673 1.66865 10.9695 1.70745 10.7484 1.70745C10.5438 1.70745 10.4503 1.7403 10.4503 1.81217C10.4503 1.93337 10.2902 2.00817 10.0306 2.00817C9.92171 2.00817 9.84885 2.052 9.84885 2.11756C9.84885 2.18297 9.74322 2.24673 9.58572 2.27627C9.43498 2.30454 9.32258 2.37025 9.32258 2.43002C9.32258 2.49122 9.24499 2.53445 9.13522 2.53445C9.02937 2.53445 8.90712 2.59978 8.85404 2.68481C8.80239 2.76751 8.68052 2.83518 8.58324 2.83518C8.46956 2.83518 8.39227 2.88893 8.36701 2.98554C8.34228 3.08012 8.26447 3.13591 8.15726 3.13591C8.05005 3.13591 7.97224 3.19169 7.9475 3.28627C7.92374 3.37709 7.84495 3.43663 7.74842 3.43663C7.66053 3.43663 7.56971 3.4861 7.54648 3.54655C7.52332 3.607 7.4398 3.67691 7.36093 3.70195C7.28199 3.72699 7.21748 3.7933 7.21748 3.84923C7.21748 3.90517 7.11598 3.97328 6.99193 4.0005C6.86788 4.02771 6.76639 4.09809 6.76639 4.1568C6.76639 4.2156 6.70098 4.26364 6.62106 4.26364C6.54114 4.26364 6.45431 4.3313 6.42807 4.414C6.40183 4.4967 6.33191 4.56436 6.27267 4.56436C6.21342 4.56436 6.16493 4.61827 6.16493 4.6842C6.16493 4.75006 6.09727 4.82171 6.01457 4.84329C5.93187 4.86494 5.8642 4.93261 5.8642 4.99365C5.8642 5.05478 5.79654 5.12244 5.71384 5.14402C5.63114 5.16567 5.56347 5.22785 5.56347 5.28228C5.56347 5.33671 5.49581 5.40272 5.41311 5.42896C5.33041 5.4552 5.26275 5.52512 5.26275 5.58436C5.26275 5.6436 5.212 5.6921 5.14997 5.6921C5.08795 5.6921 5.0372 5.746 5.0372 5.81193C5.0372 5.87779 4.96954 5.94944 4.88684 5.97102C4.80361 5.99282 4.73647 6.07357 4.73647 6.15199C4.73647 6.24341 4.68324 6.29355 4.58611 6.29355C4.48897 6.29355 4.43574 6.3437 4.43574 6.43512C4.43574 6.51361 4.36853 6.59428 4.28508 6.61616C4.18456 6.6424 4.14968 6.6954 4.18035 6.77525C4.20561 6.8411 4.18832 6.89501 4.14186 6.89501C4.09539 6.89501 4.00097 7.01342 3.93195 7.15815C3.86293 7.30287 3.76196 7.42128 3.7076 7.42128C3.65325 7.42128 3.60874 7.48504 3.60874 7.56285C3.60874 7.64412 3.54047 7.72231 3.4486 7.74637C3.34342 7.77389 3.30358 7.82757 3.33245 7.9029C3.37282 8.00793 3.26508 8.17596 2.91331 8.55691C2.84098 8.63525 2.78174 8.78712 2.78174 8.8944C2.78174 9.02612 2.73294 9.10213 2.63137 9.12867C2.54867 9.15032 2.48101 9.22814 2.48101 9.30159C2.48101 9.37504 2.43026 9.45458 2.36824 9.47842C2.30501 9.50262 2.25546 9.6145 2.25546 9.73283C2.25546 9.85102 2.18923 10.0008 2.1051 10.0728C2.01992 10.1457 1.95473 10.2946 1.95473 10.4162C1.95473 10.5353 1.88782 10.6913 1.80437 10.7669C1.70957 10.8527 1.65401 10.9984 1.65401 11.1615C1.65401 11.3494 1.61619 11.4299 1.51545 11.4562C1.40711 11.4846 1.37576 11.5683 1.3717 11.8401C1.36824 12.066 1.32463 12.2184 1.24705 12.275C1.18141 12.323 1.12773 12.4634 1.12773 12.5868C1.12773 12.7103 1.06007 12.8894 0.977367 12.9848C0.877601 13.0998 0.827003 13.266 0.827003 13.4788C0.827003 13.8712 0.768737 14.0373 0.631004 14.0373C0.550784 14.0373 0.526275 14.1693 0.526275 14.6012C0.526275 15.0523 0.50372 15.165 0.413501 15.165C0.351476 15.165 0.297872 15.2243 0.294339 15.2966C0.290805 15.3689 0.277724 15.6143 0.265244 15.8417C0.252838 16.0691 0.238779 16.5194 0.234118 16.8423C0.229382 17.1665 0.195399 17.4107 0.158259 17.3878C0.02857 17.3077 0 17.5945 0 18.9784C0 20.0957 0.0212768 20.3903 0.106984 20.4571C0.186226 20.5189 0.224117 20.8036 0.253288 21.5555C0.27494 22.1137 0.294489 22.5958 0.29667 22.6269C0.298925 22.6579 0.351476 22.6832 0.413501 22.6832C0.50372 22.6832 0.526275 22.796 0.526275 23.2471C0.526275 23.695 0.549204 23.811 0.637618 23.811C0.75806 23.811 0.799486 23.9475 0.852188 24.5178C0.87369 24.7504 0.930755 24.9111 1.00699 24.9538C1.09247 25.0016 1.12773 25.13 1.12773 25.3936C1.12773 25.6742 1.15547 25.7657 1.2405 25.7657C1.3526 25.7657 1.38177 25.8674 1.36666 26.2058C1.36155 26.3188 1.40884 26.3957 1.49733 26.4189C1.59829 26.4454 1.64641 26.5482 1.6746 26.7984C1.69769 27.0034 1.76189 27.1689 1.83399 27.2093C1.90594 27.2495 1.95473 27.3748 1.95473 27.5195C1.95473 27.6692 2.0124 27.8116 2.1051 27.891C2.1878 27.9618 2.25546 28.101 2.25546 28.2003C2.25546 28.2997 2.30305 28.3993 2.36117 28.4215C2.41928 28.4439 2.48898 28.5631 2.51612 28.6865C2.54319 28.8098 2.61408 28.9295 2.67355 28.9523C2.73302 28.9752 2.78174 29.0625 2.78174 29.1466C2.78174 29.2306 2.82888 29.2993 2.88647 29.2993C2.99398 29.2993 3.08247 29.4548 3.08247 29.6438C3.08247 29.7024 3.15013 29.818 3.23283 29.9007C3.31553 29.9834 3.38319 30.1198 3.38319 30.2038C3.38319 30.2878 3.43394 30.376 3.49597 30.3998C3.55799 30.4236 3.60874 30.5071 3.60874 30.5854C3.60874 30.6637 3.65949 30.7277 3.72151 30.7277C3.78354 30.7277 3.83429 30.7602 3.83429 30.7999C3.83429 30.8395 3.92368 30.9549 4.03292 31.0562C4.15547 31.1699 4.21411 31.2857 4.18606 31.3588C4.15787 31.4323 4.19659 31.5072 4.28816 31.5562C4.36936 31.5997 4.43574 31.6808 4.43574 31.7366C4.43574 31.7923 4.50341 31.8556 4.58611 31.8773C4.66881 31.8988 4.73647 31.9705 4.73647 32.0364C4.73647 32.1023 4.77203 32.1562 4.81549 32.1562C4.85894 32.1562 4.94458 32.2761 5.00585 32.4226C5.06705 32.5691 5.16659 32.708 5.22711 32.7312C5.28756 32.7544 5.31906 32.8026 5.29696 32.8382C5.27493 32.8739 5.3259 32.9462 5.41018 32.9988C5.49453 33.0515 5.56347 33.1332 5.56347 33.1805C5.56347 33.2277 5.63114 33.2841 5.71384 33.3057C5.79654 33.3273 5.8642 33.3989 5.8642 33.4648C5.8642 33.5307 5.91269 33.5846 5.97194 33.5846C6.03118 33.5846 6.1011 33.6523 6.12734 33.735C6.15358 33.8177 6.2235 33.8854 6.28274 33.8854C6.34199 33.8854 6.39048 33.9303 6.39048 33.9851C6.39048 34.0399 6.47506 34.1642 6.57843 34.2613C6.68181 34.3584 6.76639 34.496 6.76639 34.5671C6.76639 34.6382 6.81714 34.7158 6.87916 34.7396C6.94119 34.7634 6.99193 34.8307 6.99193 34.8892C6.99193 34.9477 7.05599 35.0124 7.13433 35.0328C7.21951 35.0551 7.29785 35.1664 7.32935 35.3098C7.35829 35.4416 7.42957 35.5678 7.48768 35.5901C7.5458 35.6124 7.59339 35.6907 7.59339 35.7642C7.59339 35.8376 7.66105 35.9154 7.74375 35.9371C7.85277 35.9656 7.89412 36.0396 7.89412 36.2063C7.89412 36.3593 7.94442 36.4632 8.04448 36.5168C8.13245 36.5638 8.19485 36.6742 8.19485 36.7825C8.19485 36.8845 8.26567 37.0387 8.35213 37.1251C8.45016 37.2232 8.49452 37.3397 8.46979 37.4342C8.44182 37.5412 8.47302 37.5971 8.57565 37.624C8.68428 37.6524 8.72112 37.7282 8.72112 37.9234C8.72112 38.1216 8.75751 38.1944 8.87149 38.2241C8.98268 38.2532 9.02185 38.3267 9.02185 38.5064C9.02185 38.6413 9.08869 38.8263 9.17221 38.9226C9.26649 39.0313 9.32258 39.2038 9.32258 39.3852C9.32258 39.5813 9.35604 39.6744 9.42656 39.6744C9.54053 39.6744 9.62068 39.8975 9.62226 40.2195C9.62293 40.3527 9.66345 40.4262 9.73608 40.4262C9.80622 40.4262 9.84885 40.4972 9.84885 40.6142C9.84885 40.7241 9.89201 40.8021 9.95283 40.8021C10.01 40.8021 10.0745 40.8698 10.0962 40.9525C10.1178 41.0352 10.1894 41.1029 10.2553 41.1029C10.3212 41.1029 10.3751 41.1498 10.3751 41.2071C10.3751 41.2727 10.4981 41.3298 10.7068 41.361C10.8896 41.3885 11.0573 41.4598 11.0803 41.52C11.1461 41.6915 12.4465 41.6761 12.5435 41.5028C12.6016 41.3989 12.7704 41.3704 13.487 41.3429C14.1609 41.3171 14.3598 41.2859 14.3598 41.2062C14.3598 41.1295 14.5002 41.0989 14.9048 41.0872C15.4584 41.0714 15.9448 41.052 16.1829 41.0363C16.2553 41.0316 16.3145 40.9769 16.3145 40.9149C16.3145 40.8221 16.4507 40.802 17.0851 40.8011C17.9502 40.8 18.1941 40.757 18.1941 40.6054C18.1941 40.5222 18.3904 40.5014 19.1785 40.5014C20.0996 40.5014 20.1654 40.4918 20.2022 40.351C20.2385 40.2123 20.3047 40.2007 21.056 40.2007C21.7536 40.2007 21.8811 40.1818 21.944 40.0691C22.0066 39.9571 22.155 39.9341 22.9439 39.9141C23.6972 39.8951 23.8881 39.8675 23.9653 39.7667C24.0399 39.6694 24.2423 39.634 24.9051 39.6021C25.5241 39.5725 25.7448 39.5365 25.7311 39.4677C25.7169 39.3965 25.9391 39.3737 26.6459 39.3737C27.6398 39.3737 27.8174 39.344 27.8174 39.1777C27.8174 39.1108 27.9013 39.0729 28.05 39.0729C28.2193 39.0729 28.2932 39.032 28.3218 38.9226C28.3435 38.8399 28.4112 38.7722 28.4722 38.7722C28.5333 38.7722 28.601 38.7046 28.6226 38.6219C28.6442 38.5392 28.7087 38.4715 28.7659 38.4715C28.8231 38.4715 28.8699 38.4197 28.8699 38.3564C28.8699 38.293 28.9207 38.2217 28.9827 38.198C29.0447 38.1741 29.0955 38.0934 29.0955 38.0185C29.0955 37.802 29.178 37.6445 29.2915 37.6445C29.3491 37.6445 29.3962 37.5927 29.3962 37.5294C29.3962 37.466 29.4436 37.396 29.5016 37.3737C29.5596 37.3516 29.6284 37.2192 29.6545 37.0796C29.6844 36.9203 29.7571 36.8085 29.8499 36.7791C29.9312 36.7533 29.9977 36.6826 29.9977 36.6221C29.9977 36.5616 30.0484 36.4925 30.1104 36.4688C30.1725 36.445 30.2232 36.3642 30.2232 36.2893C30.2232 36.0728 30.3057 35.9153 30.4192 35.9153C30.4768 35.9153 30.5239 35.8614 30.5239 35.7955C30.5239 35.7296 30.5916 35.6579 30.6743 35.6364C30.7586 35.6143 30.8247 35.5338 30.8247 35.4531C30.8247 35.3739 30.8723 35.2908 30.9307 35.2684C30.9889 35.2461 31.0578 35.1436 31.0837 35.0406C31.1094 34.9375 31.2479 34.7457 31.3912 34.6142C31.5344 34.4827 31.6517 34.3184 31.6517 34.2492C31.6517 34.0422 31.7362 33.8854 31.8477 33.8854C31.9052 33.8854 31.9524 33.8315 31.9524 33.7655C31.9524 33.6997 32.0201 33.628 32.1028 33.6065C32.2013 33.5807 32.2531 33.5039 32.2531 33.3835C32.2531 33.2825 32.2812 33.2172 32.3156 33.2385C32.3499 33.2597 32.4239 33.1602 32.48 33.0174C32.536 32.8746 32.6263 32.7576 32.6807 32.7576C32.735 32.7576 32.7794 32.7081 32.7794 32.6475C32.7794 32.587 32.8471 32.5012 32.9298 32.4569C33.027 32.4049 33.0801 32.2995 33.0801 32.1586C33.0801 32.0068 33.1257 31.9263 33.2305 31.8931C33.3132 31.8668 33.3808 31.7937 33.3808 31.7306C33.3808 31.6675 33.4499 31.5978 33.5343 31.5757C33.6187 31.5536 33.6825 31.4807 33.676 31.4136C33.6506 31.1497 33.6862 31.0285 33.7893 31.0285C33.8486 31.0285 33.9185 30.9608 33.9447 30.8781C33.971 30.7954 34.0409 30.7277 34.1001 30.7277C34.1727 30.7277 34.2079 30.6435 34.2079 30.4696C34.2079 30.2776 34.2463 30.1994 34.3582 30.1639C34.4417 30.1374 34.5086 30.0501 34.5086 29.9677C34.5086 29.8861 34.5762 29.7466 34.6589 29.6579C34.7416 29.5691 34.8093 29.456 34.8093 29.4066C34.8093 29.3572 34.8804 29.2982 34.9673 29.2755C35.0596 29.2514 35.1035 29.1991 35.0729 29.1497C34.9921 29.0189 35.0997 28.6978 35.2242 28.6978C35.2975 28.6978 35.3356 28.6217 35.3356 28.4749C35.3356 28.329 35.3875 28.2242 35.4859 28.1715C35.5838 28.1192 35.6363 28.0141 35.6363 27.8708C35.6363 27.7324 35.6887 27.6226 35.7773 27.5751C35.8618 27.5299 35.9182 27.4182 35.9182 27.2964C35.9182 27.1846 35.9732 27.0529 36.0404 27.0038C36.1076 26.9546 36.1626 26.8219 36.1626 26.709C36.1626 26.5667 36.2088 26.4914 36.313 26.4642C36.4383 26.4314 36.4633 26.3616 36.4633 26.0452C36.4633 25.8363 36.4853 25.6875 36.5123 25.7144C36.6039 25.8061 36.7592 25.5035 36.7616 25.2287C36.7631 25.0697 36.8067 24.9384 36.8658 24.9158C36.9292 24.8914 36.9836 24.6999 37.0101 24.4066C37.0388 24.0901 37.0915 23.9147 37.1715 23.87C37.2587 23.8212 37.2903 23.6863 37.2903 23.3623C37.2903 22.8529 37.3393 22.6832 37.4863 22.6832C37.5702 22.6832 37.591 22.4972 37.591 21.7478C37.591 20.9083 37.606 20.8017 37.7363 20.7105C37.8733 20.6145 37.8808 20.5124 37.8679 18.9341C37.8555 17.4259 37.8411 17.2522 37.7226 17.1859C37.6094 17.1226 37.591 16.9937 37.591 16.2629C37.591 15.5215 37.5719 15.3916 37.4407 15.2402C37.3218 15.1032 37.2903 14.959 37.2903 14.5521C37.2903 14.1639 37.2648 14.0373 37.1863 14.0373C37.0639 14.0373 36.9921 13.8097 36.9906 13.4171C36.9899 13.217 36.9568 13.1351 36.8768 13.1351C36.7905 13.1351 36.764 13.04 36.764 12.7304C36.764 12.3889 36.7406 12.3195 36.6137 12.2863C36.4941 12.255 36.4633 12.1838 36.4633 11.9385C36.4633 11.7231 36.418 11.5912 36.313 11.5013C36.2193 11.4211 36.1626 11.2795 36.1626 11.1261C36.1626 10.9623 36.1264 10.8797 36.0548 10.8797C35.9277 10.8797 35.8395 10.6494 35.9032 10.4835C35.9323 10.4076 35.8937 10.3498 35.7921 10.3175C35.6758 10.2806 35.6363 10.205 35.6363 10.0188C35.6363 9.83734 35.5975 9.7593 35.4939 9.73223C35.4096 9.7102 35.3305 9.59923 35.3 9.4603C35.2705 9.3258 35.2007 9.22565 35.1366 9.22565C35.0576 9.22565 35.0393 9.17979 35.0741 9.07003C35.1114 8.95252 35.0855 8.9044 34.9682 8.8738C34.8652 8.84681 34.7973 8.74923 34.7662 8.58352C34.7404 8.44624 34.6719 8.31565 34.614 8.29347C34.556 8.27122 34.5086 8.20122 34.5086 8.13784C34.5086 8.07454 34.4578 8.02274 34.3958 8.02274C34.3338 8.02274 34.283 7.99417 34.283 7.95929C34.283 7.92433 34.1985 7.7975 34.0951 7.67735C33.9918 7.55714 33.9073 7.40331 33.9072 7.33535C33.9072 7.26739 33.8564 7.19235 33.7943 7.16852C33.7323 7.14476 33.6816 7.07575 33.6816 7.01523C33.6816 6.9547 33.6139 6.88366 33.5312 6.85742C33.4485 6.83118 33.3808 6.76126 33.3808 6.70202C33.3808 6.64277 33.3324 6.59428 33.2731 6.59428C33.2139 6.59428 33.1439 6.52662 33.1177 6.44392C33.0915 6.36122 33.0255 6.29355 32.971 6.29355C32.9166 6.29355 32.8544 6.22589 32.8328 6.14319C32.8112 6.06049 32.7435 5.99282 32.6824 5.99282C32.6214 5.99282 32.5537 5.92516 32.532 5.84246C32.5105 5.75976 32.4388 5.6921 32.373 5.6921C32.307 5.6921 32.2531 5.66247 32.2531 5.62631C32.2531 5.50865 31.5901 4.86509 31.4688 4.86509C31.404 4.86509 31.3509 4.8166 31.3509 4.75736C31.3509 4.69811 31.2748 4.62564 31.1818 4.59624C31.0888 4.56685 30.9684 4.48001 30.9143 4.40325C30.8604 4.32641 30.7713 4.26364 30.7164 4.26364C30.6615 4.26364 30.599 4.19597 30.5773 4.11327C30.5538 4.02328 30.4748 3.96291 30.3806 3.96291C30.294 3.96291 30.2232 3.91637 30.2232 3.85953C30.2232 3.80269 30.1217 3.73586 29.9977 3.71105C29.8653 3.68458 29.7721 3.6185 29.7721 3.55129C29.7721 3.48746 29.7066 3.43663 29.6244 3.43663C29.5432 3.43663 29.4405 3.36897 29.3962 3.28627C29.3508 3.20146 29.2388 3.13591 29.1391 3.13591C29.0258 3.13591 28.9486 3.08207 28.9233 2.98554C28.8948 2.87653 28.8208 2.83518 28.6541 2.83518C28.5011 2.83518 28.3972 2.78488 28.3436 2.68481C28.2909 2.58632 28.1862 2.53445 28.0403 2.53445C27.8923 2.53445 27.8174 2.49656 27.8174 2.42167C27.8174 2.35965 27.7751 2.30635 27.7234 2.30311C27.4733 2.28785 27.3342 2.23289 27.2742 2.12568C27.238 2.06103 27.1252 2.00817 27.0235 2.00817C26.9217 2.00817 26.7806 1.94051 26.7098 1.85781C26.6222 1.75549 26.488 1.70745 26.29 1.70745C26.0622 1.70745 25.9904 1.67482 25.9596 1.55708C25.928 1.43634 25.8571 1.40672 25.5995 1.40672C25.3419 1.40672 25.271 1.37709 25.2394 1.25635C25.206 1.12862 25.1368 1.10599 24.7796 1.10599C24.4702 1.10599 24.359 1.07832 24.359 1.00126C24.359 0.856534 24.1903 0.80526 23.7138 0.80526C23.4019 0.80526 23.3064 0.778871 23.3064 0.692487C23.3064 0.608509 23.2104 0.577308 22.9305 0.570316C22.7238 0.565128 22.5208 0.552423 22.4794 0.542123C22.4381 0.531823 22.3007 0.519117 22.1743 0.513929C22.0409 0.508441 21.9639 0.472731 21.9911 0.428824C22.0642 0.310488 21.9239 0.292293 20.6055 0.248612C19.8232 0.22275 19.3518 0.177114 19.3191 0.124186C19.2647 0.0363735 18.1763 -0.0420428 17.9488 0.0254707ZM21.2765 3.51182C21.3466 3.64278 21.434 3.66218 21.9532 3.66218C22.4724 3.66218 22.5597 3.68158 22.6298 3.81254C22.6965 3.93712 22.7872 3.96291 23.1587 3.96291C23.4919 3.96291 23.6072 3.98982 23.6072 4.06764C23.6072 4.20206 23.772 4.26364 24.1316 4.26364C24.3169 4.26364 24.4334 4.30348 24.4614 4.37641C24.4852 4.43843 24.5818 4.48963 24.6762 4.49024C24.9653 4.49196 25.186 4.57662 25.186 4.68593C25.186 4.75443 25.2748 4.78991 25.4465 4.78991C25.63 4.78991 25.7308 4.83434 25.7875 4.94027C25.8433 5.0447 25.9449 5.09064 26.1197 5.09064C26.3082 5.09064 26.3812 5.12838 26.4107 5.241C26.4394 5.35047 26.5133 5.39137 26.6826 5.39137C26.8313 5.39137 26.9152 5.42918 26.9152 5.4961C26.9152 5.6094 27.0726 5.6921 27.2885 5.6921C27.363 5.6921 27.4416 5.75976 27.4633 5.84246C27.4898 5.94403 27.5658 5.99282 27.6975 5.99282C27.8208 5.99282 27.8926 6.03432 27.8926 6.1056C27.8926 6.16995 27.9601 6.21837 28.05 6.21837C28.1441 6.21837 28.2231 6.27874 28.2467 6.36873C28.2719 6.46527 28.3492 6.5191 28.4625 6.5191C28.5621 6.5191 28.6741 6.58466 28.7196 6.66946C28.7638 6.75216 28.8496 6.81983 28.9101 6.81983C28.9707 6.81983 29.0203 6.8714 29.0203 6.93448C29.0203 6.99748 29.1049 7.08123 29.2082 7.12056C29.3116 7.15988 29.3962 7.24363 29.3962 7.30663C29.3962 7.37114 29.4619 7.42128 29.5466 7.42128C29.6301 7.42128 29.6969 7.47143 29.6969 7.53406C29.6969 7.59608 29.7334 7.64683 29.7779 7.64683C29.8831 7.64683 30.2984 8.06214 30.2984 8.16732C30.2984 8.21182 30.3523 8.24829 30.4182 8.24829C30.4841 8.24829 30.5557 8.31595 30.5773 8.39865C30.599 8.48135 30.6635 8.54902 30.7207 8.54902C30.7778 8.54902 30.8247 8.59811 30.8247 8.65803C30.8247 8.71803 30.8695 8.79411 30.9243 8.82719C30.9791 8.86027 31.0457 8.94658 31.0723 9.0189C31.0989 9.09123 31.1724 9.15047 31.2358 9.15047C31.2991 9.15047 31.3509 9.20227 31.3509 9.26558C31.3509 9.32895 31.4004 9.3997 31.4608 9.42293C31.5213 9.44609 31.5901 9.52601 31.6137 9.60036C31.6373 9.67479 31.7275 9.75426 31.8141 9.77689C31.9386 9.80944 31.9635 9.86049 31.9331 10.0199C31.9037 10.1737 31.9282 10.2304 32.0362 10.2587C32.1142 10.279 32.1779 10.3555 32.1779 10.4286C32.1779 10.5016 32.2456 10.5791 32.3283 10.6007C32.439 10.6297 32.4787 10.7033 32.4787 10.8797C32.4787 11.056 32.5184 11.1296 32.629 11.1586C32.735 11.1863 32.7794 11.2611 32.7794 11.412C32.7794 11.5492 32.8334 11.6551 32.9298 11.7067C33.0167 11.7532 33.0801 11.8641 33.0801 11.9695C33.0801 12.0698 33.1521 12.219 33.24 12.3009C33.3537 12.4068 33.3889 12.5083 33.3615 12.6515C33.3321 12.8051 33.3567 12.8618 33.4647 12.89C33.6008 12.9257 33.6379 13.0287 33.6114 13.298C33.6046 13.367 33.6683 13.4454 33.7531 13.4723C33.8829 13.5135 33.9071 13.584 33.9071 13.9209C33.9071 14.2484 33.9325 14.3271 34.0481 14.3574C34.164 14.3877 34.1948 14.4844 34.2213 14.8999C34.2451 15.274 34.2867 15.4243 34.3811 15.477C34.4869 15.5362 34.5086 15.6687 34.5086 16.2535C34.5086 16.8248 34.5335 16.9836 34.6401 17.0903C34.7587 17.2089 34.7717 17.4149 34.7717 19.1692C34.7717 20.9371 34.7596 21.1255 34.6401 21.2128C34.5308 21.2927 34.5086 21.4297 34.5086 22.022C34.5086 22.6396 34.4884 22.7533 34.3582 22.8712C34.2436 22.975 34.2079 23.1028 34.2079 23.4091C34.2079 23.7011 34.1794 23.811 34.1039 23.811C33.9858 23.811 33.9097 24.0363 33.9082 24.3899C33.9076 24.5236 33.8575 24.6583 33.7956 24.6929C33.6963 24.7485 33.6265 25.0201 33.6114 25.4086C33.6087 25.4809 33.5556 25.5402 33.4936 25.5402C33.4245 25.5402 33.3808 25.6105 33.3808 25.722C33.3808 25.9815 33.306 26.1416 33.1848 26.1416C33.1157 26.1416 33.0801 26.2292 33.0801 26.3997C33.0801 26.5917 33.0416 26.67 32.9298 26.7055C32.823 26.7394 32.7794 26.8192 32.7794 26.9807C32.7794 27.145 32.7376 27.2192 32.629 27.2476C32.5226 27.2754 32.4787 27.3501 32.4787 27.503C32.4787 27.6377 32.4221 27.7546 32.3283 27.8131C32.2456 27.8647 32.1779 27.9507 32.1779 28.004C32.1779 28.0574 32.1272 28.1206 32.0652 28.1443C31.9998 28.1694 31.9524 28.2819 31.9524 28.4122C31.9524 28.5735 31.9101 28.6478 31.802 28.676C31.7188 28.6978 31.6517 28.7786 31.6517 28.857C31.6517 28.9348 31.6047 28.9985 31.5472 28.9985C31.4869 28.9985 31.4214 29.113 31.3919 29.27C31.3584 29.4486 31.2912 29.5545 31.1956 29.5796C31.1156 29.6005 31.0502 29.6654 31.0502 29.7239C31.0502 29.7824 30.9995 29.8498 30.9374 29.8735C30.872 29.8986 30.8247 30.0111 30.8247 30.1414C30.8247 30.3026 30.7823 30.377 30.6743 30.4052C30.5373 30.4411 30.4909 30.5186 30.5151 30.6713C30.5199 30.7024 30.4563 30.7277 30.3736 30.7277C30.2593 30.7277 30.2232 30.7779 30.2232 30.9367C30.2232 31.0594 30.1611 31.1903 30.0728 31.254C29.9901 31.3136 29.9225 31.4044 29.9225 31.4559C29.9225 31.5074 29.8548 31.5856 29.7721 31.6299C29.6894 31.6742 29.6217 31.76 29.6217 31.8205C29.6217 31.8811 29.571 31.9306 29.509 31.9306C29.433 31.9306 29.3962 32.0066 29.3962 32.1633C29.3962 32.3326 29.3553 32.4065 29.2458 32.4351C29.1631 32.4568 29.0955 32.5244 29.0955 32.5855C29.0955 32.6466 29.0278 32.7143 28.9451 32.7358C28.8604 32.758 28.7947 32.8384 28.7947 32.9199C28.7947 32.9995 28.7271 33.1373 28.6444 33.226C28.5617 33.3148 28.494 33.4318 28.494 33.4861C28.494 33.5403 28.4455 33.5846 28.3863 33.5846C28.327 33.5846 28.2581 33.6492 28.2331 33.7281C28.208 33.807 28.1381 33.8905 28.0777 33.9136C28.0137 33.9382 27.9677 34.054 27.9677 34.1908C27.9677 34.3625 27.9273 34.4363 27.8174 34.465C27.7347 34.4867 27.667 34.5522 27.667 34.6107C27.667 34.6692 27.6163 34.7366 27.5542 34.7603C27.4922 34.7842 27.4415 34.8677 27.4415 34.946C27.4415 35.0242 27.3797 35.1501 27.3042 35.2256C27.2286 35.3011 27.1451 35.4195 27.1186 35.4887C27.092 35.558 27.0205 35.6146 26.9597 35.6146C26.8862 35.6146 26.8413 35.7091 26.8257 35.8965L26.8024 36.1784L26.2207 36.2004C25.7334 36.2187 25.6263 36.2462 25.5603 36.3695C25.4894 36.5019 25.3986 36.5168 24.6609 36.5168C23.9682 36.5168 23.8291 36.5366 23.769 36.644C23.7097 36.7499 23.5429 36.7761 22.7691 36.8013C22.1304 36.8221 21.8163 36.8618 21.7631 36.9287C21.7129 36.992 21.3841 37.0442 20.8233 37.0779C20.2163 37.1144 19.9361 37.1614 19.8774 37.2368C19.8141 37.3179 19.5916 37.3438 18.9564 37.3438C18.2191 37.3438 18.1009 37.3617 17.9685 37.4941C17.8348 37.6279 17.7179 37.6445 16.9089 37.6445C16.063 37.6445 15.9969 37.6549 15.9604 37.7948C15.924 37.9341 15.8579 37.9452 15.069 37.9452C14.3356 37.9452 14.2066 37.9636 14.1434 38.0768C14.0802 38.19 13.9271 38.2118 13.0455 38.233C11.9211 38.2602 11.8036 38.225 11.8036 37.8609C11.8036 37.7186 11.7649 37.6445 11.6908 37.6445C11.6288 37.6445 11.5757 37.5852 11.5729 37.5129C11.5585 37.1482 11.4982 36.9248 11.3934 36.8482C11.3268 36.7995 11.2773 36.6504 11.2773 36.4984C11.2773 36.2968 11.2415 36.2241 11.1269 36.1942C11.0118 36.1642 10.9766 36.0917 10.9766 35.8848C10.9766 35.704 10.9419 35.6146 10.8719 35.6146C10.7601 35.6146 10.6759 35.4577 10.6759 35.2492C10.6759 35.1791 10.6076 35.0633 10.5241 34.9918C10.4147 34.8982 10.3856 34.8097 10.4196 34.6744C10.4554 34.5316 10.4372 34.4868 10.3433 34.4868C10.2755 34.4868 10.1975 34.4276 10.1698 34.3553C10.1422 34.2829 10.0587 34.1581 9.98418 34.0779C9.90975 33.9978 9.84885 33.854 9.84885 33.7584C9.84885 33.6628 9.80487 33.5846 9.75119 33.5846C9.69744 33.5846 9.61068 33.4662 9.55835 33.3215C9.50602 33.1768 9.43159 33.0584 9.39287 33.0584C9.35423 33.0584 9.32258 32.9907 9.32258 32.908C9.32258 32.8253 9.27409 32.7576 9.21484 32.7576C9.1556 32.7576 9.08568 32.69 9.05944 32.6073C9.0332 32.5246 8.96328 32.4569 8.90404 32.4569C8.8448 32.4569 8.7963 32.4111 8.7963 32.3551C8.7963 32.2991 8.71172 32.1621 8.60835 32.0506C8.50497 31.939 8.42039 31.8168 8.42039 31.7791C8.42039 31.7413 8.35273 31.6742 8.27003 31.6299C8.18733 31.5856 8.11967 31.5035 8.11967 31.4474C8.11967 31.3912 8.06892 31.3258 8.00689 31.302C7.94487 31.2782 7.89412 31.2069 7.89412 31.1436C7.89412 31.0803 7.84337 31.0285 7.78135 31.0285C7.71932 31.0285 7.66857 30.9746 7.66857 30.9086C7.66857 30.8428 7.60407 30.7719 7.52512 30.7513C7.44626 30.7307 7.36484 30.6493 7.34424 30.5705C7.32364 30.4915 7.25439 30.427 7.19034 30.427C7.11681 30.427 7.05577 30.33 7.02456 30.1639C6.9963 30.0131 6.93058 29.9007 6.87081 29.9007C6.81337 29.9007 6.76639 29.8331 6.76639 29.7504C6.76639 29.6655 6.71624 29.6 6.65128 29.6C6.58791 29.6 6.514 29.5408 6.48701 29.4684C6.46002 29.3961 6.37386 29.2908 6.29545 29.2344C6.1932 29.1609 6.16606 29.0794 6.19952 28.9462C6.23606 28.8006 6.21305 28.7519 6.09275 28.7204C6.0084 28.6983 5.93938 28.6399 5.93938 28.5905C5.93938 28.5411 5.87172 28.428 5.78902 28.3392C5.70632 28.2505 5.63866 28.1127 5.63866 28.0331C5.63866 27.9516 5.57295 27.8712 5.48829 27.849C5.37432 27.8192 5.33793 27.7465 5.33793 27.5483C5.33793 27.3501 5.30154 27.2774 5.18756 27.2476C5.079 27.2192 5.0372 27.145 5.0372 26.9807C5.0372 26.8192 4.99359 26.7394 4.88684 26.7055C4.77496 26.67 4.73647 26.5917 4.73647 26.3997C4.73647 26.2204 4.70204 26.1416 4.6237 26.1416C4.5428 26.1416 4.51093 26.0591 4.51093 25.8497C4.51093 25.6209 4.47837 25.5492 4.36056 25.5184C4.23794 25.4863 4.2102 25.4158 4.2102 25.1364C4.2102 24.8706 4.17644 24.7756 4.05983 24.7132C3.93826 24.6481 3.90947 24.5557 3.90947 24.2306C3.90947 23.8917 3.88579 23.8223 3.7591 23.7892C3.63272 23.7562 3.60874 23.6866 3.60874 23.354C3.60874 23.0898 3.56702 22.9121 3.48319 22.8195C3.38959 22.716 3.34643 22.4766 3.31388 21.88C3.2844 21.3397 3.23959 21.0691 3.17629 21.048C3.03247 21.0001 3.04127 17.302 3.18532 17.2468C3.26087 17.2178 3.29741 16.9835 3.3229 16.3655C3.35109 15.6812 3.38101 15.5105 3.48311 15.4534C3.58055 15.3989 3.60874 15.2726 3.60874 14.8912C3.60874 14.4624 3.62806 14.3941 3.7591 14.3598C3.88639 14.3265 3.90947 14.2573 3.90947 13.9087C3.90947 13.5602 3.93255 13.4909 4.05983 13.4577C4.18479 13.425 4.2102 13.3551 4.2102 13.0442C4.2102 12.7332 4.23561 12.6633 4.36056 12.6307C4.47386 12.601 4.51093 12.5281 4.51093 12.3346C4.51093 12.1757 4.55393 12.0614 4.6237 12.0346C4.6879 12.0099 4.73647 11.8979 4.73647 11.7744C4.73647 11.639 4.79293 11.5223 4.88684 11.4637C4.98014 11.4054 5.0372 11.2883 5.0372 11.1553C5.0372 11.004 5.08156 10.9292 5.18756 10.9015C5.29455 10.8735 5.33793 10.7989 5.33793 10.643C5.33793 10.5128 5.38605 10.4054 5.45649 10.3783C5.52168 10.3533 5.60543 10.2529 5.64257 10.1552C5.67971 10.0575 5.76173 9.97748 5.82473 9.97748C5.89488 9.97748 5.93938 9.90906 5.93938 9.80117C5.93938 9.70419 6.00705 9.5636 6.08975 9.48879C6.17245 9.41398 6.24011 9.30723 6.24011 9.25159C6.24011 9.19596 6.2886 9.15047 6.34785 9.15047C6.40709 9.15047 6.47701 9.08281 6.50325 9.00011C6.52949 8.91741 6.5955 8.84974 6.64993 8.84974C6.70436 8.84974 6.76654 8.78208 6.78819 8.69938C6.80977 8.61668 6.88142 8.54902 6.94728 8.54902C7.01471 8.54902 7.06712 8.48676 7.06712 8.40669C7.06712 8.32843 7.11786 8.2449 7.17989 8.22107C7.24191 8.19731 7.29266 8.12604 7.29266 8.06266C7.29266 7.99936 7.34446 7.94756 7.40777 7.94756C7.47115 7.94756 7.54242 7.89681 7.56617 7.83478C7.59001 7.77276 7.65978 7.72201 7.72127 7.72201C7.7827 7.72201 7.85074 7.65435 7.87232 7.57165C7.89397 7.48895 7.96163 7.42128 8.02268 7.42128C8.08381 7.42128 8.15147 7.35362 8.17305 7.27092C8.19485 7.18769 8.27559 7.12056 8.35401 7.12056C8.44543 7.12056 8.49558 7.06733 8.49558 6.97019C8.49558 6.87306 8.54572 6.81983 8.63714 6.81983C8.71556 6.81983 8.7963 6.75269 8.81811 6.66946C8.83968 6.58676 8.91133 6.5191 8.97719 6.5191C9.04313 6.5191 9.09703 6.47106 9.09703 6.41227C9.09703 6.35355 9.19853 6.28318 9.32258 6.25596C9.44663 6.22875 9.54813 6.15837 9.54813 6.09966C9.54813 6.04086 9.61549 5.99282 9.69789 5.99282C9.78021 5.99282 9.88983 5.92516 9.94148 5.84246C9.99313 5.75976 10.115 5.6921 10.2123 5.6921C10.326 5.6921 10.4032 5.63834 10.4285 5.54173C10.4545 5.44242 10.5311 5.39137 10.6541 5.39137C10.7771 5.39137 10.8537 5.34032 10.8796 5.241C10.9073 5.13507 10.9821 5.09064 11.133 5.09064C11.2702 5.09064 11.3761 5.03658 11.4277 4.94027C11.4807 4.84126 11.5851 4.78991 11.7334 4.78991C11.8584 4.78991 11.9769 4.74247 11.9995 4.68345C12.0228 4.62271 12.1995 4.55504 12.4107 4.52602C12.6546 4.49249 12.781 4.43896 12.781 4.36934C12.781 4.29867 12.8681 4.26364 13.0441 4.26364C13.207 4.26364 13.3645 4.20635 13.4576 4.11327C13.5721 3.99877 13.7082 3.96291 14.0285 3.96291C14.3858 3.96291 14.455 3.94028 14.4883 3.81254C14.5232 3.6794 14.5909 3.66218 15.0801 3.66218C15.5556 3.66218 15.6438 3.6412 15.7131 3.51182C15.7912 3.36574 15.8705 3.36145 18.4948 3.36145C21.1191 3.36145 21.1983 3.36574 21.2765 3.51182ZM27.6935 42.7289C27.646 42.7484 27.3922 42.788 27.1296 42.8169L26.6521 42.8696L26.6306 43.552L26.6092 44.2343L26.0292 44.32C25.7102 44.3671 25.2546 44.4262 25.0168 44.4512L24.5845 44.4969L24.5834 43.9464C24.5827 43.6436 24.5567 43.3558 24.5256 43.3068C24.484 43.2414 24.3287 43.2352 23.9424 43.2838C23.1187 43.3872 23.1353 43.3726 23.1897 43.9516C23.2153 44.2249 23.2683 45.0877 23.3072 45.8689C23.3462 46.6501 23.3934 47.3047 23.4122 47.3235C23.431 47.3423 23.6196 47.3205 23.8312 47.2752C24.0429 47.2298 24.3158 47.1926 24.4379 47.1926C24.5625 47.1926 24.662 47.1514 24.6648 47.0986C24.6677 47.047 24.6657 46.7297 24.6604 46.3937L24.6509 45.7827L25.2379 45.7001C25.5609 45.6547 26.0026 45.5954 26.2198 45.5684L26.6145 45.5192V46.1661V46.8129L26.8588 46.7738C27.7144 46.6366 27.9567 46.5664 27.988 46.4465C28.0063 46.3767 28.0282 45.5011 28.0368 44.5006C28.0514 42.7869 28.0444 42.6821 27.916 42.6876C27.8411 42.6909 27.7409 42.7095 27.6935 42.7289ZM21.7276 43.5558C20.6128 43.7324 20.1282 43.8741 19.7353 44.1383C19.065 44.589 18.8474 45.1471 19.178 45.5676C19.3883 45.8348 19.6459 45.9586 20.2271 46.072C20.7653 46.177 20.9295 46.2781 20.8593 46.4611C20.8039 46.6054 19.925 46.7938 19.218 46.8129C19.0947 46.8162 19.0828 46.8573 19.1248 47.1362C19.2649 48.0658 19.2462 48.0196 19.4816 48.0196C19.8525 48.0196 21.4117 47.6545 21.7263 47.494C22.4744 47.1124 22.8139 46.5463 22.6007 46.0359C22.4366 45.6432 22.1771 45.524 21.1147 45.3531C20.8308 45.3075 20.721 45.1813 20.8225 45.0171C20.8899 44.9081 21.7066 44.7181 22.1247 44.7142C22.2829 44.7128 22.4231 44.67 22.4409 44.6176C22.4584 44.566 22.4319 44.3037 22.3819 44.035C22.2844 43.5103 22.2365 43.4752 21.7276 43.5558ZM17.5926 44.1967C15.9525 44.4689 15.3178 44.5612 15.086 44.5612C14.9396 44.5612 14.8032 44.5879 14.7831 44.6206C14.7288 44.7084 14.9515 46.2606 15.3205 48.3668L15.3747 48.6764L16.6152 48.4591C17.2975 48.3395 18.0344 48.2207 18.2526 48.1951C18.471 48.1694 18.6583 48.1279 18.669 48.1028C18.6797 48.0777 18.6534 47.819 18.6104 47.5278L18.5324 46.9986L17.4586 47.1432C16.868 47.2228 16.3723 47.2749 16.3569 47.2591C16.3417 47.2432 16.3174 47.1315 16.303 47.0109C16.2777 46.7987 16.2914 46.7885 16.728 46.6962C16.9761 46.6437 17.2865 46.5987 17.4177 46.596C17.5489 46.5933 17.8309 46.5509 18.0444 46.5016L18.4324 46.412L18.3813 46.0693C18.3533 45.8808 18.3199 45.7157 18.3071 45.7026C18.2944 45.6893 18.086 45.713 17.8442 45.7552C17.0305 45.8972 16.2274 46.0029 16.1964 45.9719C16.1796 45.955 16.1452 45.8384 16.1201 45.7129C16.0757 45.491 16.0836 45.4834 16.4012 45.4422C17.6916 45.2749 18.0218 45.2274 18.1377 45.1923C18.2465 45.1595 18.2692 45.0625 18.2692 44.6314C18.2692 44.0459 18.3167 44.0765 17.5926 44.1967ZM13.2696 44.7969C11.6298 45.0957 10.8262 45.5352 10.8262 46.1334C10.8262 46.3392 10.8912 46.4533 11.1477 46.698C11.46 46.9959 11.7613 47.1216 12.4163 47.2274C12.708 47.2746 12.8906 47.4276 12.8391 47.5819C12.8041 47.6871 12.0096 47.8575 11.5217 47.8646C11.346 47.8671 11.2033 47.8946 11.2047 47.9256C11.2092 48.023 11.6412 49.2355 11.6881 49.2824C11.7581 49.3524 12.9834 49.1552 13.332 49.0178C14.1463 48.697 14.5359 48.2416 14.5304 47.6167C14.5244 46.9107 14.2345 46.7087 12.8561 46.4505C12.5289 46.3891 12.4335 46.0957 12.7197 46.0305C13.369 45.8827 13.5986 45.8428 13.8103 45.8411C13.9422 45.8402 14.0723 45.8035 14.0993 45.7597C14.1264 45.716 14.0896 45.4622 14.0175 45.1958C13.8746 44.6678 13.9009 44.6819 13.2696 44.7969ZM24.5845 50.7262C24.4524 50.8583 24.334 50.8765 23.6064 50.8765C22.8717 50.8765 22.7642 50.8934 22.65 51.0269C22.5354 51.1607 22.4282 51.1773 21.676 51.1773C20.9077 51.1773 20.8234 51.1909 20.7503 51.3276C20.677 51.4645 20.5928 51.478 19.8116 51.478C19.0836 51.478 18.9426 51.4973 18.8822 51.6052C18.8231 51.7108 18.6552 51.7379 17.8951 51.765C17.2108 51.7894 16.9691 51.8238 16.9395 51.901C16.9093 51.9798 16.707 52.0043 16.0871 52.0043C15.2126 52.0043 15.0364 52.0371 15.0364 52.2003C15.0364 52.2812 14.8973 52.305 14.4233 52.305C13.8149 52.305 13.8113 52.3062 13.9463 52.4554C14.0211 52.5381 14.1098 52.6057 14.1434 52.6057C14.1769 52.6057 14.3228 52.7241 14.4675 52.8689C14.6122 53.0136 14.7814 53.132 14.8433 53.132C14.9052 53.132 14.9921 53.1997 15.0364 53.2824C15.083 53.3694 15.1938 53.4327 15.2996 53.4327C15.4053 53.4327 15.5162 53.496 15.5627 53.5831C15.6194 53.689 15.7201 53.7335 15.9036 53.7335C16.0762 53.7335 16.1641 53.7688 16.1641 53.8382C16.1641 53.9694 16.3278 54.0342 16.659 54.0342C16.8158 54.0342 16.9746 54.0928 17.0663 54.1845C17.1992 54.3174 17.3169 54.3349 18.076 54.3349C18.7589 54.3349 18.9595 54.3593 19.054 54.4538C19.1193 54.5191 19.1536 54.6037 19.1301 54.6417C19.1066 54.6797 19.1232 54.7108 19.167 54.7108C19.2108 54.7108 19.2466 54.6613 19.2466 54.6007C19.2466 54.4032 19.524 54.3349 20.3256 54.3349C21.1759 54.3349 21.3517 54.3013 21.3517 54.1389C21.3517 54.0634 21.4561 54.0342 21.725 54.0342C22.0213 54.0342 22.1148 54.0032 22.1787 53.8838C22.2352 53.7783 22.3361 53.7335 22.517 53.7335C22.6979 53.7335 22.7989 53.6886 22.8554 53.5831C22.9081 53.4846 23.0128 53.4327 23.1587 53.4327C23.2998 53.4327 23.3816 53.394 23.3816 53.3273C23.3816 53.2694 23.4831 53.1865 23.6072 53.1433C23.7312 53.1 23.8327 53.0291 23.8327 52.9855C23.8327 52.942 23.8835 52.9065 23.9455 52.9065C24.0075 52.9065 24.1259 52.8388 24.2086 52.7561C24.2913 52.6734 24.4075 52.6057 24.4667 52.6057C24.526 52.6057 24.5959 52.5381 24.6221 52.4554C24.6484 52.3727 24.7183 52.305 24.7775 52.305C24.8368 52.305 24.8853 52.2511 24.8853 52.1852C24.8853 52.1193 24.9529 52.0476 25.0356 52.0261C25.1183 52.0044 25.186 51.9422 25.186 51.8878C25.186 51.8334 25.2537 51.7674 25.3364 51.7411C25.4191 51.7149 25.4867 51.6634 25.4867 51.6267C25.4867 51.5372 25.8508 51.1773 25.9412 51.1773C25.9807 51.1773 26.013 51.0963 26.013 50.9974C26.013 50.8984 26.0638 50.798 26.1258 50.7741C26.1878 50.7504 26.2385 50.696 26.2385 50.6533C26.2385 50.6053 25.9531 50.5758 25.4867 50.5758C24.8351 50.5758 24.7148 50.5959 24.5845 50.7262Z" fill="#E3E3E3"/>
</svg>
