<svg width="15" height="12" viewBox="0 0 15 12" fill="none" xmlns="http://www.w3.org/2000/svg">
<path id="Class" fill-rule="evenodd" clip-rule="evenodd" d="M7.29968 0.0173963C7.03427 0.0556462 7.15499 0.00127026 4.80048 1.14313C3.86921 1.59477 3.34782 1.84732 1.6755 2.65679C-0.00770782 3.47153 0.0735417 3.42121 0.0154728 3.68522C-0.0111996 3.80644 -0.00615271 3.84774 0.0524737 3.98964C0.132344 4.18283 0.178089 4.21577 0.721866 4.47163C0.939734 4.57417 1.13448 4.67326 1.15467 4.69186C1.18304 4.71804 1.19135 5.0851 1.19135 6.3128V7.89994L1.10071 8.00542C1.05085 8.06342 0.974916 8.18363 0.931988 8.27252C0.865498 8.41015 0.854142 8.47415 0.855551 8.70351C0.85734 8.99651 0.893989 9.11653 1.04678 9.32951L1.13583 9.45367L1.0584 9.89565C1.01582 10.1388 0.947481 10.5288 0.906519 10.7624C0.859248 11.0321 0.837564 11.2465 0.8471 11.35C0.865909 11.5544 0.993343 11.7828 1.1476 11.8887C1.38774 12.0536 1.91983 12.0313 2.11596 11.8483C2.35569 11.6244 2.41616 11.3282 2.32165 10.8405C2.29486 10.7022 2.24838 10.4355 2.2184 10.2479C2.18838 10.0602 2.14416 9.80521 2.12013 9.6812L2.07644 9.45572L2.16174 9.3414C2.44416 8.96292 2.43503 8.39097 2.14099 8.04141L2.04161 7.92324L2.04926 6.52006L2.05695 5.11688L2.67315 5.41635C3.39066 5.76505 4.3465 6.22822 5.56339 6.81687C6.03947 7.04716 6.56104 7.29997 6.72242 7.37866C7.27603 7.64856 7.72397 7.64856 8.27758 7.37866C8.43896 7.29997 8.96053 7.04716 9.43661 6.81687C10.6051 6.25163 11.5453 5.79605 12.5469 5.30968C13.0069 5.08632 13.6737 4.76448 14.0287 4.59442C14.8477 4.20219 14.8641 4.19142 14.9475 3.98964C15.0062 3.84774 15.0112 3.80644 14.9845 3.68522C14.9265 3.42121 15.0077 3.47153 13.3245 2.65679C11.6522 1.84732 11.1308 1.59477 10.1995 1.14313C9.73957 0.920059 9.07851 0.599765 8.73051 0.431358C7.88266 0.0210597 7.68043 -0.0374466 7.29968 0.0173963ZM2.83453 7.83188C2.83453 9.07437 2.84242 9.372 2.88007 9.54896C3.10079 10.5864 4.33294 11.4046 6.16491 11.7301C6.54023 11.7968 6.73683 11.8084 7.5 11.8089C8.26989 11.8095 8.45645 11.7985 8.83509 11.7307C10.4252 11.446 11.5864 10.7824 11.9977 9.92323C12.1571 9.59022 12.1668 9.46456 12.1585 7.83579L12.1508 6.34444L11.5053 6.65733C11.1502 6.82944 10.7937 7.00399 10.713 7.04522C10.6323 7.08645 10.2428 7.27565 9.84741 7.46568C9.45201 7.65571 8.95026 7.89836 8.73239 8.00492C8.11188 8.3084 7.92981 8.36102 7.5 8.36102C7.08049 8.36102 6.88099 8.30596 6.34097 8.04112C6.16345 7.95402 5.66169 7.71142 5.22595 7.50196C4.79021 7.2925 4.37428 7.08993 4.30166 7.05183C4.22904 7.01372 3.87913 6.84273 3.52408 6.67184C3.16904 6.50096 2.86863 6.35388 2.85654 6.34501C2.84445 6.33611 2.83453 7.00521 2.83453 7.83188Z" fill="white"/>
</svg>
